HIERARCHY
ROOT Hips
{
  OFFSET 0.0476744 92.3392 -0.0146736
  CHANNELS 6 Xposition Yposition Zposition Zrotation Xrotation Yrotation
  JOINT Spine
  {
    OFFSET 0 4.73261 7.09892
    CHANNELS 3 Zrotation Xrotation Yrotation
    JOINT Spine1
    {
      OFFSET 0 0 9.46521
      CHANNELS 3 Zrotation Xrotation Yrotation
      JOINT Spine2
      {
        OFFSET 0 0 9.46522
        CHANNELS 3 Zrotation Xrotation Yrotation
        JOINT Spine3
        {
          OFFSET 0 0 9.46521
          CHANNELS 3 Zrotation Xrotation Yrotation
          JOINT Neck
          {
            OFFSET 0 -3.54946 24.8462
            CHANNELS 3 Zrotation Xrotation Yrotation
            JOINT Head
            {
              OFFSET 0 0 13.0147
              CHANNELS 3 Zrotation Xrotation Yrotation
              End Site
              {
                OFFSET 0 0 15.3218
              }
            }
          }
          JOINT RightShoulder
          {
            OFFSET -3.19949 -5.33248 17.2772
            CHANNELS 3 Zrotation Xrotation Yrotation
            JOINT RightArm
            {
              OFFSET 15.8908 0 -2.56059e-05
              CHANNELS 3 Zrotation Xrotation Yrotation
              JOINT RightForeArm
              {
                OFFSET 29.5437 0 3.38067e-05
                CHANNELS 3 Zrotation Xrotation Yrotation
                JOINT RightHand
                {
                  OFFSET 23.2652 0 0
                  CHANNELS 3 Zrotation Xrotation Yrotation
                  JOINT RightHandEnd
                  {
                    OFFSET 6.96115 0 0
                    CHANNELS 3 Zrotation Xrotation Yrotation
                    End Site
                    {
                      OFFSET 6.96115 0 0
                    }
                  }
                  JOINT RightHandThumb1
                  {
                    OFFSET 2.78446 -4.64077 1.85631
                    CHANNELS 3 Zrotation Xrotation Yrotation
                    JOINT RightHandThumb2
                    {
                      OFFSET 6.96116 0 1.38192e-05
                      CHANNELS 3 Zrotation Xrotation Yrotation
                      End Site
                      {
                        OFFSET 0 0 0
                      }
                    }
                  }
                }
              }
            }
          }
          JOINT LeftShoulder
          {
            OFFSET 3.19949 -5.33248 17.2772
            CHANNELS 3 Zrotation Xrotation Yrotation
            JOINT LeftArm
            {
              OFFSET 15.8908 0 1.61023e-05
              CHANNELS 3 Zrotation Xrotation Yrotation
              JOINT LeftForeArm
              {
                OFFSET 29.5437 0 2.38095e-05
                CHANNELS 3 Zrotation Xrotation Yrotation
                JOINT LeftHand
                {
                  OFFSET 23.2652 0 0
                  CHANNELS 3 Zrotation Xrotation Yrotation
                  JOINT LeftHandEnd
                  {
                    OFFSET 6.96115 0 0
                    CHANNELS 3 Zrotation Xrotation Yrotation
                    End Site
                    {
                      OFFSET 6.96115 0 0
                    }
                  }
                  JOINT LeftHandThumb1
                  {
                    OFFSET 2.78446 -4.64077 -1.8563
                    CHANNELS 3 Zrotation Xrotation Yrotation
                    JOINT LeftHandThumb2
                    {
                      OFFSET 6.96115 0 0
                      CHANNELS 3 Zrotation Xrotation Yrotation
                      End Site
                      {
                        OFFSET 0 0 0
                      }
                    }
                  }
                }
              }
            }
          }
        }
      }
    }
  }
  JOINT RightUpLeg
  {
    OFFSET -9.49185 0 -2.77289
    CHANNELS 3 Zrotation Xrotation Yrotation
    JOINT RightLeg
    {
      OFFSET 41.2118 -4.40531e-05 2.52115e-05
      CHANNELS 3 Zrotation Xrotation Yrotation
      JOINT RightFoot
      {
        OFFSET 45.6091 1.31933e-05 0
        CHANNELS 3 Zrotation Xrotation Yrotation
        JOINT RightToeBase
        {
          OFFSET 17.0969 0 0
          CHANNELS 3 Zrotation Xrotation Yrotation
          End Site
          {
            OFFSET 7.67878 0 0
          }
        }
      }
    }
  }
  JOINT LeftUpLeg
  {
    OFFSET 9.49185 0 -2.77289
    CHANNELS 3 Zrotation Xrotation Yrotation
    JOINT LeftLeg
    {
      OFFSET 41.2118 -4.74087e-05 -1.38042e-05
      CHANNELS 3 Zrotation Xrotation Yrotation
      JOINT LeftFoot
      {
        OFFSET 45.6092 0 0
        CHANNELS 3 Zrotation Xrotation Yrotation
        JOINT LeftToeBase
        {
          OFFSET 17.0969 0 0
          CHANNELS 3 Zrotation Xrotation Yrotation
          End Site
          {
            OFFSET 7.67878 0 0
          }
        }
      }
    }
  }
}
MOTION
Frames:	7
Frame Time:	0.00833333
0.0464945 92.3413 -0.0130058 140.272 -83.441 149.457 -0.719082 -11.0207 -3.96416 -0.0482777 5.60458 0.293516 -2.67021 11.2601 -4.51051 0.382082 0.926298 -1.435 -1.43721 11.9184 -3.98413 -0.00302636 -8.60068 4.11952 4.18683 8.22752 164.702 -29.4122 -7.42552 -58.7619 -28.8062 7.77533e-05 -0.000104623 -2.64093 -8.19816 -11.7767 5.97138e-09 -90 5.97139e-09 165 10 -180 1.43125e-14 -3.49861e-14 -0 -6.43594 7.99826 11.6144 -39.5361 9.06556 61.1555 -30.5742 5.58609e-05 -2.08245e-05 -3.41051 5.64532 6.62392 -2.38856e-08 90 2.38856e-08 165 10 -180 1.43125e-14 3.18055e-15 3.18055e-15 -3.57244 7.67353 80.8483 2.93562 -0.0287662 7.04622e-06 -77.4764 5.31966 11.745 -19.4902 5.09626e-07 -4.39246e-06 8.85755 -14.5579 68.813 27.0272 -0.00576463 4.28203e-05 -79.4782 -8.79333 3.32118 -19.6514 1.72466e-06 -4.74156e-06 
0.0476745 92.3392 -0.0146736 140.346 -83.4484 149.536 -0.719653 -11.0288 -3.96944 -0.0490723 5.60215 0.28647 -2.66045 11.2658 -4.50587 0.382536 0.926104 -1.42615 -1.44526 11.9199 -3.9794 -0.018458 -8.59285 4.10982 4.18483 8.22678 164.706 -29.4189 -7.42724 -58.7717 -28.8075 6.87524e-05 -9.17915e-05 -2.6305 -8.16532 -11.7715 5.97139e-09 -90 5.97139e-09 165 10 -180 9.54166e-15 -1.90833e-14 -0 -6.46022 7.99816 11.6071 -39.5427 9.07916 61.1533 -30.5753 2.88419e-05 1.54851e-05 -3.42082 5.64281 6.62946 -1.19428e-08 90 1.19428e-08 165 10 -180 -8.2896e-08 -9.22085e-08 -1.18303e-07 -3.58453 7.66394 80.8453 2.95254 -0.0289086 4.31019e-06 -77.4796 5.31725 11.7272 -19.4818 3.95716e-07 -2.96104e-06 8.87883 -14.5661 68.8066 27.0305 -0.0057744 3.20772e-05 -79.4757 -8.798 3.33724 -19.6634 1.33302e-06 1.12974e-06 
0.0500356 92.3371 -0.0135961 140.423 -83.4555 149.619 -0.720325 -11.0376 -3.97527 -0.0499241 5.59972 0.278828 -2.64965 11.2724 -4.50094 0.383068 0.925919 -1.41658 -1.45382 11.9214 -3.97443 -0.0352505 -8.58462 4.09904 4.18255 8.22599 164.71 -29.4257 -7.42872 -58.7823 -28.8089 5.89107e-05 -7.7664e-05 -2.61934 -8.13018 -11.7659 -1.19428e-08 -90 -1.19428e-08 165 10 -180 6.36111e-15 -2.22639e-14 -0 -6.48658 7.99766 11.5989 -39.5504 9.09402 61.1514 -30.5766 -1.77207e-07 5.48079e-05 -3.4321 5.63893 6.63513 0 90 -0 165 10 -180 -2.06809e-07 -2.15812e-07 -3.02936e-07 -3.59765 7.6534 80.8421 2.97221 -0.0290661 1.39319e-06 -77.4842 5.31481 11.7087 -19.4723 2.57331e-07 -1.41726e-06 8.90145 -14.5744 68.7998 27.034 -0.00578447 2.07409e-05 -79.473 -8.80265 3.35418 -19.6762 9.03683e-07 7.47265e-06 
0.0509798 92.3336 -0.0137868 140.494 -83.463 149.694 -0.720797 -11.0452 -3.97999 -0.0506623 5.5973 0.272376 -2.64093 11.2772 -4.4966 0.383442 0.925717 -1.40845 -1.46135 11.9228 -3.96995 -0.0493162 -8.5772 4.09042 4.18083 8.2253 164.713 -29.4323 -7.43068 -58.7912 -28.8101 5.07498e-05 -6.61298e-05 -2.60965 -8.09964 -11.7612 1.19428e-08 -90 1.19428e-08 165 10 -180 1.59028e-14 -2.22639e-14 -0 -6.50878 7.99797 11.5926 -39.5559 9.10636 61.149 -30.5774 -2.51982e-05 8.81028e-05 -3.44143 5.63779 6.64054 -2.38856e-08 90 2.38856e-08 165 10 -180 -2.48688e-07 -2.76625e-07 -3.5491e-07 -3.60871 7.64478 80.8392 2.98639 -0.0291933 -1.03569e-06 -77.4861 5.31244 11.6918 -19.4649 1.68529e-07 -9.81593e-08 8.92139 -14.5824 68.7938 27.0371 -0.00579394 1.05929e-05 -79.4708 -8.80733 3.36937 -19.6875 5.46041e-07 1.28721e-05 
0.052739 92.3313 -0.010572 140.549 -83.4714 149.753 -0.720765 -11.0498 -3.98193 -0.0511156 5.59494 0.268901 -2.63737 11.2775 -4.49376 0.383421 0.925471 -1.40394 -1.46626 11.9239 -3.96671 -0.056569 -8.57182 4.0872 4.18053 8.22485 164.714 -29.4381 -7.43385 -58.7956 -28.8105 4.67916e-05 -6.10786e-05 -2.60363 -8.08058 -11.7585 -1.59028e-15 -90 -0 165 10 -180 1.11319e-14 -1.59028e-14 6.36111e-15 -6.52058 8.00026 11.5908 -39.5557 9.11242 61.1457 -30.5765 -4.02219e-05 0.00010633 -3.44591 5.64349 6.64527 -2.38856e-08 90 2.38856e-08 165 10 -180 -8.54812e-08 -1.80465e-07 -7.52403e-08 -3.61463 7.64094 80.8374 2.98684 -0.0292448 -2.35987e-06 -77.4815 5.31022 11.6787 -19.4627 2.03157e-07 6.59165e-07 8.9346 -14.5895 68.7901 27.0396 -0.00580186 3.41474e-06 -79.4701 -8.81206 3.38022 -19.6949 3.70411e-07 1.5913e-05 
0.0538916 92.3289 -0.00896925 140.577 -83.4819 149.782 -0.719765 -11.0501 -3.97919 -0.051129 5.59186 0.270132 -2.6421 11.2708 -4.49354 0.382747 0.925439 -1.40524 -1.46731 11.9249 -3.96475 -0.0539699 -8.57003 4.09249 4.18293 8.22489 164.711 -29.4432 -7.43928 -58.7928 -28.8098 5.01049e-05 -6.75561e-05 -2.60246 -8.0777 -11.7592 1.79142e-08 -90 1.79142e-08 165 10 -180 -6.67276e-08 -2.8732e-08 7.70766e-09 -6.51584 8.00593 11.5971 -39.5462 9.10836 61.14 -30.5726 -3.86804e-05 9.91047e-05 -3.44288 5.66193 6.64927 1.19428e-08 90 -1.19428e-08 165 10 -180 4.81887e-07 2.16955e-07 8.62429e-07 -3.61348 7.64502 80.8374 2.96334 -0.0291506 -2.05368e-06 -77.4646 5.30719 11.6706 -19.4691 5.02281e-07 5.61888e-07 8.93758 -14.5968 68.79 27.042 -0.00580836 7.62066e-07 -79.4713 -8.81709 3.38607 -19.6978 5.09253e-07 1.57019e-05 
0.0552471 92.3304 -0.0110749 140.586 -83.4939 149.79 -0.718086 -11.0474 -3.97316 -0.0508299 5.5883 0.274698 -2.6527 11.2592 -4.49518 0.381613 0.925546 -1.41065 -1.46562 11.9258 -3.96373 -0.0443489 -8.57077 4.1038 4.18722 8.22527 164.706 -29.448 -7.4463 -58.7849 -28.8085 5.85456e-05 -8.21516e-05 -2.60478 -8.08639 -11.7622 5.97139e-09 -90 5.97139e-09 165 10 -180 -1.7794e-07 -7.66186e-08 2.05537e-08 -6.49939 8.01398 11.6091 -39.5302 9.09712 61.1326 -30.5665 -2.54313e-05 7.39061e-05 -3.43453 5.6893 6.65274 -1.59028e-15 90 -0 165 10 -180 1.33237e-06 8.2568e-07 2.26087e-06 -3.60727 7.6547 80.8386 2.92297 -0.0289544 -4.78186e-07 -77.4392 5.30361 11.666 -19.4817 9.86064e-07 -1.42492e-07 8.93327 -14.6041 68.7924 27.0444 -0.00581382 1.32436e-06 -79.4739 -8.82231 3.38831 -19.6975 8.70122e-07 1.31656e-05 
